<svg xmlns="http://www.w3.org/2000/svg" viewBox="0 0 640 480">
  <path fill="#fff" d="M0 0h640v480H0z"/>
  <path fill="#c8102e" d="M240 0h160v480H240zM0 160h640v160H0z"/>
  <g transform="translate(320,240)">
    <circle r="80" fill="none" stroke="#fff" stroke-width="8"/>
    <circle r="80" fill="none" stroke="#c8102e" stroke-width="4"/>
    <g transform="translate(0,-15)">
      <path fill="#fff" d="M-35-30 Q-35-35 -30-35 L30-35 Q35-35 35-30 L35 0 Q35 5 30 5 L5 5 L5 20 Q5 25 0 25 Q-5 25 -5 20 L-5 5 L-30 5 Q-35 5 -35 0 Z"/>
      <circle cx="-25" cy="-20" r="4" fill="#c8102e"/>
      <circle cx="-15" cy="-25" r="4" fill="#c8102e"/>
      <circle cx="0" cy="-27" r="4" fill="#c8102e"/>
      <circle cx="15" cy="-25" r="4" fill="#c8102e"/>
      <circle cx="25" cy="-20" r="4" fill="#c8102e"/>
    </g>
    <g transform="translate(0,50)">
      <polygon points="0,-15 -8,0 8,0" fill="#ffd700"/>
      <circle cx="0" cy="-8" r="6" fill="#ffd700"/>
      <circle cx="-12" cy="-5" r="5" fill="#ffd700"/>
      <circle cx="12" cy="-5" r="5" fill="#ffd700"/>
    </g>
  </g>
</svg>
