<svg xmlns="http://www.w3.org/2000/svg" viewBox="0 0 640 480">
  <path fill="#fff" d="M0 0h640v480H0z"/>
  <g stroke-width="1pt">
    <path fill="#c8102e" d="M0 0v53.3L426.7 240 0 426.7V480h53.3L480 266.7 533.3 480H640v-53.3L213.3 240 640 53.3V0h-53.3L160 213.3 106.7 0z"/>
    <path fill="#012169" d="M106.7 0L0 53.3v53.4L373.3 240v-53.4zm426.6 53.3V0L160 213.3v53.4zM0 426.7L106.7 480h53.3L0 320zm640 0V373.3L266.7 240v53.3z"/>
    <path fill="#c8102e" d="M0 160v160h160L0 160zm480 0L640 320V160zm-213.3 0v320h106.6V160z"/>
  </g>
</svg>
